<?xml version="1.0" encoding="UTF-8"?>
<svg id="Camada_2" data-name="Camada 2" xmlns="http://www.w3.org/2000/svg" viewBox="0 0 1489.5 318.27">
  <defs>
    <style>
      .cls-1 {
        fill: #fff;
      }
    </style>
  </defs>
  <g id="Camada_1-2" data-name="Camada 1">
    <g>
      <path class="cls-1" d="M1282.36,166.72c0-33.8,0-67.59,0-101.39,0-7.31,.03-7.33,7.12-7.33,62.96,0,125.92,0,188.87,0,7.25,0,7.25,.02,7.27,7.02,0,3.16,.06,6.33-.03,9.49-.23,8.33-4.4,12.91-12.71,13.85-2.14,.24-4.32,.17-6.49,.17-46.3,0-92.6,0-138.91,0-6.99,0-7,.02-7.01,6.78-.01,16.48,.16,32.97-.1,49.45-.08,5.03,1.49,6.59,6.54,6.57,46.8-.16,93.6-.1,140.41-.09,7.79,0,7.88,.1,7.9,7.7,.02,5.83-.16,11.66,.05,17.48,.16,4.33-1.61,5.88-5.89,5.82-12.82-.17-25.65-.05-38.47-.05-34.48,0-68.95,0-103.43,0-6.97,0-6.99,.03-7,6.91-.01,16.65,.14,33.3-.09,49.95-.06,4.64,1.51,5.94,6.05,5.93,47.97-.14,95.94-.09,143.9-.07,2.33,0,4.69-.07,6.98,.26,7.21,1.04,11.09,4.77,11.88,12.04,.52,4.78,.21,9.64,.26,14.47,.02,2.4-1.05,3.76-3.59,3.72-1.33-.02-2.66,.04-4,.04-63.96,0-127.91,0-191.87,0q-7.61,0-7.63-7.82c0-33.63,0-67.26,0-100.89Z"/>
      <path class="cls-1" d="M463.92,275.43c-25.31,0-50.63-.12-75.94,.1-5.07,.04-6.98-1.54-6.49-6.57,.34-3.46-.06-7,.16-10.48,.5-8.1,4.7-12.5,12.73-13.42,2.14-.24,4.32-.17,6.49-.17,40.64,0,81.27,0,121.91-.03,4.31,0,8.61,.15,12.91-.87,13.81-3.25,21.34-12.24,21.8-26.51,.15-4.64,.34-9.29-.76-13.9-3.14-13.16-11.86-20.9-25.44-21.07-28.97-.36-57.95-.15-86.93-.38-8.3-.07-16.65-.31-24.81-2.2-24.51-5.68-38.84-22.67-41.01-47.8-.95-11.04-.88-21.96,1.5-32.75,5.13-23.23,20.95-37.26,45.01-40.38,5.13-.67,10.25-1.02,15.42-1.02,46.8,.03,93.6,.01,140.39,.02q7.27,0,7.28,7.51c0,3.16,.04,6.33-.05,9.49-.22,7.49-3.75,11.73-11.15,13.09-2.43,.45-4.97,.43-7.46,.43-39.8,.02-79.61,.03-119.41,0-5.17,0-10.3,.13-15.32,1.66-3.56,1.08-6.78,2.68-9.66,5.05-8.63,7.12-12.04,24.57-7.42,38.19,3.7,10.89,12.49,17.39,25.25,17.53,28.47,.31,56.95,.16,85.43,.33,8.31,.05,16.66,.3,24.84,2.03,21.96,4.63,35.63,17.84,40.34,39.84,2.89,13.49,2.95,27.12-.03,40.6-5.21,23.55-20.63,37.39-44.7,40.66-5.46,.74-10.92,1.05-16.42,1.04-22.82-.04-45.63-.02-68.45-.02Z"/>
      <path class="cls-1" d="M220.74,137.85c9.88,.27,18.14,3.96,24.09,11.99,5.17,6.97,10.06,14.21,11.42,23.02,1.92,12.46-2.25,22.68-12.58,29.97-11.44,8.07-23.91,14.48-36,21.49-48.96,28.38-98,56.63-147.03,84.89-3.89,2.24-7.87,4.36-11.95,6.23-13.24,6.08-28.37,2.14-36.96-9.55-4.66-6.33-8.87-13-10.78-20.69-3.17-12.77,1.54-25.27,13.08-32.44,16.96-10.53,34.32-20.43,51.6-30.44,44.51-25.77,89.06-51.47,133.63-77.14,6.64-3.82,13.35-7.63,21.47-7.33Z"/>
      <path class="cls-1" d="M290.37,38.24c-.37,13.49-5.21,22.27-14.71,28.02-15.94,9.65-32.07,19-48.2,28.33-44.36,25.68-88.74,51.33-133.18,76.86-7.59,4.36-15.02,9.39-24.45,9.12-3.72-.1-7.18-1.02-10.75-1.88-12.85-3.11-29.8-30.49-24.51-45.89,2.73-7.94,6.93-14.35,14.14-18.59,20.37-11.97,40.76-23.92,61.21-35.75C151.26,54.55,192.7,30.79,233.99,6.79,245.69,0,257.69-3.29,269.71,4.59c12.67,8.31,18.78,21.04,20.65,33.64Z"/>
      <path class="cls-1" d="M1150.45,275.37c-21.32,0-42.64,.26-63.96-.09-14.29-.24-28.18-3.06-40.63-10.56-18.02-10.86-25.76-27.99-28.67-47.97-.84-5.79-1.03-11.59-1.02-17.42,.04-23.97-.2-47.95,.15-71.92,.2-14.14,3.21-27.79,10.73-40.03,11.13-18.13,28.57-25.57,48.71-28.38,8.12-1.13,16.27-.99,24.42-1,37.64,0,75.29,.07,112.93-.09,4.71-.02,6.77,1.31,6.4,6.19-.32,4.14,.07,8.3-.63,12.45-1.18,7.02-4.12,10.29-11.12,11.54-2.44,.43-4.97,.43-7.46,.43-34.31,.05-68.62-.04-102.93,.14-9.6,.05-18.92,1.92-27.06,7.45-12.45,8.45-16.07,21.37-16.33,35.24-.46,23.63-.47,47.29,.01,70.92,.28,13.68,3.85,26.44,16.07,34.88,8.26,5.7,17.73,7.59,27.5,7.63,35.48,.16,70.95,.08,106.43,.14,2.65,0,5.36,.03,7.94,.55,6.81,1.37,10.26,5.54,10.77,12.49q1.28,17.47-16.27,17.47c-18.65,0-37.31,0-55.96,0v-.06Z"/>
      <path class="cls-1" d="M659.6,166.49c0-33.63,0-67.26,0-100.89,0-7.58,.02-7.59,7.35-7.6,5.5,0,11-.12,16.49,.06,8.38,.27,12.53,3.97,13.75,12.2,.41,2.78,.51,5.63,.51,8.45,.03,52.94,.02,105.89,.02,158.83q0,7.34,7.48,7.35c43.8,0,87.61,0,131.41,.01,2.49,0,5.02-.06,7.47,.34,6.83,1.09,10.59,4.54,11.39,11.35,.69,5.89,2.5,12.86-.81,17.49-2.65,3.71-9.39,1.28-14.28,1.28-57.79,.11-115.59,.07-173.38,.07-7.37,0-7.4-.02-7.4-7.55,0-33.8,0-67.59,0-101.39Z"/>
      <path class="cls-1" d="M911.24,162.63c0-32.62,0-65.24,0-97.86,0-6.73,.03-6.75,6.53-6.77,5.66-.02,11.33-.11,16.98,.05,8.49,.25,13.21,4.77,13.97,13.2,.15,1.65,.1,3.33,.1,4.99,0,63.91,0,127.82,0,191.73q0,7.44-7.43,7.45c-5.16,0-10.32,.07-15.48-.03-9.89-.19-14.64-4.95-14.65-14.91-.05-32.62-.02-65.24-.02-97.86Z"/>
    </g>
  </g>
</svg>